<svg width="20px" height="20px" version="1.1" id="Layer_1" xmlns="http://www.w3.org/2000/svg" xmlns:xlink="http://www.w3.org/1999/xlink" x="0px" y="0px" viewBox="0 0 615 615" enable-background="new 0 0 615 615" xml:space="preserve">
	<path fill="#000000" opacity="0.000000" stroke="none" d="
M349.000000,616.000000 
	C232.666687,616.000000 116.833374,616.000000 1.000047,616.000000 
	C1.000031,411.000061 1.000031,206.000122 1.000015,1.000129 
	C205.999893,1.000086 410.999786,1.000086 615.999756,1.000043 
	C615.999878,205.999878 615.999878,410.999756 615.999939,615.999817 
	C527.166687,616.000000 438.333344,616.000000 349.000000,616.000000 
M447.002960,511.692200 
	C446.975739,513.854004 447.326782,516.102600 446.854126,518.162231 
	C445.048950,526.028381 442.583435,533.760681 441.117065,541.682190 
	C439.618134,549.779846 439.029724,558.044495 437.963074,566.225647 
	C437.836853,567.193909 436.961273,568.070251 436.857605,569.034790 
	C436.497040,572.389038 435.485992,576.024780 436.422058,579.022827 
	C436.910614,580.587585 440.943176,581.848999 443.388947,581.873840 
	C464.883972,582.091675 486.382141,582.005981 507.879364,581.995239 
	C512.481201,581.992920 517.565674,577.015930 518.034241,572.424316 
	C518.559875,567.273682 519.340210,562.148743 520.032959,557.015686 
	C520.424622,554.113770 520.707214,551.185120 521.313904,548.326843 
	C522.435974,543.040833 523.860901,537.818970 524.970459,532.530579 
	C525.989624,527.672852 526.731262,522.757446 527.648621,517.877563 
	C528.390991,513.928406 529.352173,510.015747 529.965881,506.048157 
	C530.807800,500.605865 531.417175,495.127472 532.118042,489.663483 
	C532.573975,486.108673 532.851868,482.521759 533.500610,479.002899 
	C534.540161,473.363678 536.507507,467.812531 536.867432,462.146942 
	C537.834656,446.923401 536.911987,431.767792 532.961182,416.927032 
	C531.931824,413.060486 531.283875,408.992828 529.605103,405.419464 
	C526.129639,398.021515 521.960083,390.953308 518.298157,383.638275 
	C514.273621,375.598724 508.558472,368.951080 502.270508,362.637207 
	C498.061249,358.410583 494.318085,353.719788 490.678314,349.590607 
	C492.544403,348.328033 495.421234,346.543762 498.120911,344.522858 
	C504.514160,339.737061 510.806030,334.816101 517.170105,329.990967 
	C530.785095,319.668274 541.528625,306.666748 550.900696,292.607178 
	C556.571716,284.099701 560.756409,274.616608 566.085388,265.861908 
	C572.411743,255.468674 574.529053,243.544312 578.754700,232.405228 
	C581.054565,226.342834 582.018677,219.349030 581.789368,212.838531 
	C581.280823,198.398605 583.806335,183.937607 580.298340,169.441757 
	C578.604553,162.442810 577.422119,155.386917 575.240112,148.403275 
	C571.717712,137.129303 566.427429,126.909569 559.153992,117.927193 
	C553.201843,110.576660 546.013489,104.184937 539.073425,97.688370 
	C531.925781,90.997566 523.525146,86.056175 514.626343,82.049995 
	C509.870087,79.908760 504.909912,78.221558 500.047668,76.314430 
	C495.558594,74.553688 491.203339,72.267120 486.565094,71.111977 
	C478.308594,69.055740 469.919403,67.454086 461.516174,66.090782 
	C455.104858,65.050636 448.586792,64.093468 442.115112,64.086288 
	C333.295929,63.965569 224.476562,63.993980 115.657295,64.070190 
	C114.327011,64.071121 112.776627,64.863091 111.713867,65.748055 
	C109.549591,67.550232 107.648499,69.668472 105.531250,71.763062 
	C106.529549,72.942101 107.486290,73.585472 107.728271,74.432930 
	C110.217628,83.151245 112.716248,91.870697 114.958473,100.654625 
	C116.821259,107.952087 118.241852,115.361588 120.048058,122.674591 
	C121.731125,129.488998 122.591499,130.028778 130.222046,129.995514 
	C204.964996,129.669632 279.707672,129.223740 354.450958,129.061325 
	C379.532593,129.006805 404.615784,129.666138 429.698212,130.002518 
	C430.527740,130.013641 431.411957,129.883240 432.177399,130.120148 
	C438.374786,132.038361 444.725006,133.609802 450.687836,136.102203 
	C458.285400,139.277893 465.996063,142.556366 472.842377,147.036774 
	C478.221069,150.556732 482.600983,155.750717 486.997589,160.589035 
	C493.647003,167.906525 496.942352,176.982224 498.915070,186.482437 
	C499.768707,190.593430 499.787384,194.892670 500.014343,199.115570 
	C500.393585,206.172104 501.503784,213.339813 500.675781,220.265793 
	C499.939575,226.423920 496.404358,232.197556 495.144836,238.353745 
	C492.768921,249.966003 486.279633,259.420837 479.909424,268.854767 
	C470.527740,282.748505 457.523499,293.175812 442.888580,300.664429 
	C430.842621,306.828247 417.674530,311.273865 404.535980,314.673065 
	C394.556763,317.254913 383.845856,317.821259 373.454498,317.864960 
	C309.463867,318.134094 245.471558,318.000000 181.479797,318.000000 
	C179.684616,318.000000 177.889435,318.000000 176.243164,318.000000 
	C176.624924,322.522247 176.606079,326.655090 177.420197,330.616730 
	C178.119354,334.019043 180.039413,337.154419 180.935867,340.536072 
	C182.203430,345.317749 182.737885,350.300446 184.106934,355.046906 
	C186.091034,361.925781 189.337723,368.532379 190.546585,375.514648 
	C191.561035,381.373962 194.332001,382.126770 199.254684,382.074524 
	C217.083710,381.885315 234.926239,381.610626 252.744888,382.080536 
	C290.512085,383.076569 328.357727,379.428619 366.058746,384.003235 
	C373.013153,384.847076 380.007690,382.713074 387.075500,385.756134 
	C392.259064,387.987823 398.420502,387.892181 404.103088,389.045654 
	C406.750153,389.582947 409.522644,390.218414 411.838257,391.520660 
	C416.375763,394.072479 420.917267,396.773926 424.937378,400.051025 
	C430.533264,404.612793 436.175964,409.313293 440.833893,414.776886 
	C445.938446,420.764313 448.980896,428.025513 450.128571,436.048920 
	C451.053558,442.515564 453.566071,448.854095 453.765625,455.299286 
	C453.990417,462.560455 455.366272,469.968750 452.204895,477.292633 
	C450.412964,481.444031 450.607483,486.471497 450.017395,491.118347 
	C449.281494,496.913422 448.684296,502.726105 447.957489,508.522400 
	C447.860016,509.299866 447.355286,510.026245 447.002960,511.692200 
M181.000000,464.599548 
	C179.667496,470.371124 177.992493,476.089417 177.083847,481.926971 
	C175.765396,490.397247 174.999832,498.953613 174.000427,507.473480 
	C173.924225,508.122955 173.963516,508.804169 173.779449,509.419922 
	C172.545410,513.548340 170.833084,517.589233 170.114075,521.801575 
	C169.289612,526.631775 169.500687,531.628967 168.946640,536.517944 
	C168.497772,540.478516 167.628845,544.395325 166.862869,548.315308 
	C165.668365,554.428284 164.407883,560.528381 163.162476,566.631348 
	C163.002197,567.416748 162.856888,568.225220 162.548660,568.957275 
	C159.658752,575.821045 162.368942,581.970581 168.426849,581.981445 
	C193.244568,582.025879 218.062439,582.020386 242.880173,581.980469 
	C247.166855,581.973572 251.560638,577.663513 252.023575,573.507446 
	C252.596573,568.363464 253.322861,563.235962 254.029190,558.107727 
	C254.441849,555.111633 254.781631,552.091553 255.438629,549.145691 
	C257.208038,541.212036 259.490234,533.375610 260.891907,525.381836 
	C262.342712,517.107849 262.996399,508.694183 264.004303,500.342255 
	C264.081940,499.698822 264.144958,499.044769 264.314056,498.422668 
	C265.528290,493.955750 267.131927,489.557343 267.899109,485.016693 
	C268.688263,480.346161 268.509491,475.520599 269.055542,470.797668 
	C269.475922,467.161743 270.212402,463.543121 271.079346,459.982758 
	C272.250092,455.174835 274.026459,450.492340 274.898834,445.640198 
	C275.707031,441.145294 275.280884,436.426331 276.112305,431.938293 
	C276.915833,427.600769 278.497223,423.384766 279.981720,419.202240 
	C281.538971,414.814636 277.539215,408.038727 273.003906,408.028107 
	C248.019684,407.969666 223.033051,407.851440 198.054245,408.223267 
	C195.471390,408.261749 192.057938,410.862305 190.602478,413.237640 
	C188.854599,416.090210 188.755966,419.967957 188.008926,423.416016 
	C186.657867,429.652008 185.164322,435.865601 184.083435,442.149323 
	C182.853836,449.297546 182.010956,456.512238 181.000000,464.599548 
M245.500000,155.000000 
	C230.335144,155.000000 215.170288,155.000000 200.005432,155.000000 
	C180.341095,155.000000 160.676758,154.988693 141.012436,155.007034 
	C135.252670,155.012405 131.321915,158.470306 132.174377,164.025757 
	C133.031464,169.611359 135.089478,175.059921 137.104416,180.385727 
	C137.577011,181.634903 139.933731,182.710968 141.530258,182.884293 
	C144.989090,183.259766 148.516861,183.000000 152.016449,183.000000 
	C200.677322,183.000000 249.338211,183.000748 297.999084,182.999100 
	C304.585510,182.998886 306.230103,181.533829 305.910675,174.847107 
	C305.737274,171.216873 304.866852,167.573380 303.934296,164.035110 
	C301.589874,155.140381 301.278564,155.000000 291.494659,155.000000 
	C276.496429,155.000000 261.498230,155.000000 245.500000,155.000000 
M148.001953,222.255615 
	C148.990738,225.102036 150.798965,227.952499 150.784943,230.793976 
	C150.761246,235.602493 153.268112,236.027191 156.932617,236.024124 
	C201.373062,235.986938 245.813553,236.007172 290.254028,235.990631 
	C295.634186,235.988632 298.552826,231.675110 296.891602,226.614792 
	C295.755890,223.155319 295.134735,219.523758 293.946320,216.085709 
	C292.813995,212.810120 291.823975,209.020447 287.245361,209.017456 
	C243.137772,208.988571 199.030075,208.964920 154.922775,209.076950 
	C151.885727,209.084671 149.602905,210.131256 147.331482,213.436554 
	C144.692688,217.276413 149.228149,218.785004 148.001953,222.255615 
M250.500000,262.000000 
	C223.677429,262.000000 196.854874,261.993958 170.032303,262.005859 
	C165.512726,262.007874 161.411469,265.717072 162.133438,270.129639 
	C163.239029,276.886841 165.227890,283.499542 166.799850,289.999939 
	C206.827103,289.999939 245.807663,290.012207 284.788177,289.982300 
	C289.016418,289.979034 289.982025,287.789276 288.459869,283.834869 
	C286.353821,278.363647 284.294739,272.779572 283.177917,267.056030 
	C282.449402,263.322601 281.143768,261.915405 277.489075,261.963409 
	C268.827393,262.077271 260.163177,262.000000 250.500000,262.000000 
M44.132164,86.998260 
	C38.749241,87.623207 33.366318,88.248161 27.350622,88.946571 
	C28.160133,91.064514 28.360868,92.623505 29.215405,93.624176 
	C31.437969,96.226852 34.145786,98.426003 36.276577,101.092545 
	C37.827778,103.033760 40.066673,105.700539 39.714272,107.625595 
	C38.952053,111.789291 36.574497,115.632385 35.142979,119.706856 
	C34.125454,122.602982 33.574051,125.662880 32.705616,129.078354 
	C34.880421,128.947906 36.360153,129.245926 37.444695,128.723526 
	C41.092064,126.966629 44.484081,124.649734 48.194130,123.061935 
	C51.375977,121.700180 55.204079,119.674988 58.127048,120.409103 
	C62.157570,121.421402 65.571106,124.810127 69.319527,127.063454 
	C70.922638,128.027145 72.703766,128.694702 75.047661,129.800491 
	C75.047661,126.535561 74.288528,124.097565 75.179787,123.001213 
	C78.930550,118.387314 76.159065,113.287498 76.875175,108.505318 
	C77.057053,107.290718 76.944542,105.646111 77.677910,104.970840 
	C80.081734,102.757462 82.924210,101.027000 85.390045,98.872787 
	C88.560867,96.102676 91.530396,93.102142 94.586632,90.200867 
	C94.327438,89.669342 94.068253,89.137817 93.809059,88.606293 
	C88.892929,88.070343 83.906784,87.871399 79.087326,86.870148 
	C76.264725,86.283752 72.305717,85.076759 71.325569,82.989929 
	C69.331337,78.743996 69.089394,73.692909 67.939087,69.019463 
	C67.670906,67.929893 66.738182,66.296745 65.968010,66.211784 
	C64.939392,66.098312 63.420017,66.985710 62.721336,67.906212 
	C59.063568,72.725296 55.836727,77.890656 51.956177,82.512558 
	C50.269451,84.521523 47.376709,85.517906 44.132164,86.998260 
M113.559891,339.000000 
	C108.173218,339.901733 102.786545,340.803436 96.977394,341.775879 
	C97.116005,342.579773 96.932693,344.106995 97.605400,344.955688 
	C100.100533,348.103668 102.727585,351.179749 105.581245,354.003815 
	C110.975342,359.342010 110.878448,361.232605 107.040306,368.096497 
	C104.760429,372.173645 103.928978,377.060699 102.446304,381.583588 
	C102.941360,381.944427 103.436409,382.305298 103.931465,382.666138 
	C110.619179,379.457947 117.297829,376.230530 124.006104,373.065918 
	C124.843109,372.671021 126.053955,372.157196 126.717682,372.476288 
	C128.755646,373.455963 130.559860,374.908051 132.549484,376.004974 
	C136.723114,378.305939 140.957062,380.497467 146.000000,383.176941 
	C146.000000,375.031433 145.830963,368.548828 146.112946,362.085907 
	C146.188126,360.362823 147.256302,358.283539 148.539566,357.087891 
	C152.345642,353.541595 156.601166,350.479614 160.436539,346.961761 
	C161.856979,345.658905 162.597778,343.615051 163.785370,341.686981 
	C155.736801,340.488922 149.044235,339.492737 142.560410,338.527588 
	C140.451981,331.836700 138.303864,325.019897 136.128769,318.117462 
	C135.088226,318.117462 133.784348,318.117462 132.844528,318.117462 
	C131.888046,320.038940 131.184891,321.768768 130.216187,323.334259 
	C127.904984,327.069427 125.228294,330.597687 123.151901,334.453308 
	C121.179108,338.116547 118.502800,339.682373 113.559891,339.000000 
M89.955688,203.570724 
	C87.239655,209.040634 84.103905,212.971176 76.698433,212.265625 
	C71.646889,211.784332 66.356079,213.814407 60.536053,214.832947 
	C65.407059,220.742722 70.120514,226.461349 74.410431,231.666092 
	C71.999352,239.457352 69.663948,247.004059 67.328545,254.550781 
	C67.861427,254.840027 68.394310,255.129288 68.927193,255.418549 
	C75.431824,252.297958 81.927200,249.157761 88.451309,246.078430 
	C89.403633,245.628922 90.793320,244.906952 91.469772,245.268051 
	C95.633240,247.490540 99.639694,250.005554 103.720230,252.385803 
	C105.557625,253.457596 107.445450,254.442932 109.962013,255.825485 
	C109.962013,247.926483 109.934830,241.274399 109.993240,234.623077 
	C110.001389,233.695251 110.120247,232.405746 110.713150,231.902267 
	C116.159943,227.277054 121.769646,222.843552 127.209511,218.210495 
	C128.221741,217.348419 128.686981,215.844101 129.553574,214.385544 
	C121.784233,213.497986 115.177795,212.828949 108.608459,211.898071 
	C107.651405,211.762451 106.349670,210.512070 106.098396,209.545837 
	C104.893921,204.914230 104.183968,200.150024 102.889946,195.547760 
	C102.418640,193.871521 100.815552,192.513519 99.728821,191.010315 
	C98.628822,192.044830 97.339485,192.941605 96.466553,194.141342 
	C94.372536,197.019272 92.474106,200.039505 89.955688,203.570724 
z" />
	<path fill="#FFFFFF" opacity="1.000000" stroke="none" d="
M447.021057,511.234253 
	C447.355286,510.026245 447.860016,509.299866 447.957489,508.522400 
	C448.684296,502.726105 449.281494,496.913422 450.017395,491.118347 
	C450.607483,486.471497 450.412964,481.444031 452.204895,477.292633 
	C455.366272,469.968750 453.990417,462.560455 453.765625,455.299286 
	C453.566071,448.854095 451.053558,442.515564 450.128571,436.048920 
	C448.980896,428.025513 445.938446,420.764313 440.833893,414.776886 
	C436.175964,409.313293 430.533264,404.612793 424.937378,400.051025 
	C420.917267,396.773926 416.375763,394.072479 411.838257,391.520660 
	C409.522644,390.218414 406.750153,389.582947 404.103088,389.045654 
	C398.420502,387.892181 392.259064,387.987823 387.075500,385.756134 
	C380.007690,382.713074 373.013153,384.847076 366.058746,384.003235 
	C328.357727,379.428619 290.512085,383.076569 252.744888,382.080536 
	C234.926239,381.610626 217.083710,381.885315 199.254684,382.074524 
	C194.332001,382.126770 191.561035,381.373962 190.546585,375.514648 
	C189.337723,368.532379 186.091034,361.925781 184.106934,355.046906 
	C182.737885,350.300446 182.203430,345.317749 180.935867,340.536072 
	C180.039413,337.154419 178.119354,334.019043 177.420197,330.616730 
	C176.606079,326.655090 176.624924,322.522247 176.243164,318.000000 
	C177.889435,318.000000 179.684616,318.000000 181.479797,318.000000 
	C245.471558,318.000000 309.463867,318.134094 373.454498,317.864960 
	C383.845856,317.821259 394.556763,317.254913 404.535980,314.673065 
	C417.674530,311.273865 430.842621,306.828247 442.888580,300.664429 
	C457.523499,293.175812 470.527740,282.748505 479.909424,268.854767 
	C486.279633,259.420837 492.768921,249.966003 495.144836,238.353745 
	C496.404358,232.197556 499.939575,226.423920 500.675781,220.265793 
	C501.503784,213.339813 500.393585,206.172104 500.014343,199.115570 
	C499.787384,194.892670 499.768707,190.593430 498.915070,186.482437 
	C496.942352,176.982224 493.647003,167.906525 486.997589,160.589035 
	C482.600983,155.750717 478.221069,150.556732 472.842377,147.036774 
	C465.996063,142.556366 458.285400,139.277893 450.687836,136.102203 
	C444.725006,133.609802 438.374786,132.038361 432.177399,130.120148 
	C431.411957,129.883240 430.527740,130.013641 429.698212,130.002518 
	C404.615784,129.666138 379.532593,129.006805 354.450958,129.061325 
	C279.707672,129.223740 204.964996,129.669632 130.222046,129.995514 
	C122.591499,130.028778 121.731125,129.488998 120.048058,122.674591 
	C118.241852,115.361588 116.821259,107.952087 114.958473,100.654625 
	C112.716248,91.870697 110.217628,83.151245 107.728271,74.432930 
	C107.486290,73.585472 106.529549,72.942101 105.531250,71.763062 
	C107.648499,69.668472 109.549591,67.550232 111.713867,65.748055 
	C112.776627,64.863091 114.327011,64.071121 115.657295,64.070190 
	C224.476562,63.993980 333.295929,63.965569 442.115112,64.086288 
	C448.586792,64.093468 455.104858,65.050636 461.516174,66.090782 
	C469.919403,67.454086 478.308594,69.055740 486.565094,71.111977 
	C491.203339,72.267120 495.558594,74.553688 500.047668,76.314430 
	C504.909912,78.221558 509.870087,79.908760 514.626343,82.049995 
	C523.525146,86.056175 531.925781,90.997566 539.073425,97.688370 
	C546.013489,104.184937 553.201843,110.576660 559.153992,117.927193 
	C566.427429,126.909569 571.717712,137.129303 575.240112,148.403275 
	C577.422119,155.386917 578.604553,162.442810 580.298340,169.441757 
	C583.806335,183.937607 581.280823,198.398605 581.789368,212.838531 
	C582.018677,219.349030 581.054565,226.342834 578.754700,232.405228 
	C574.529053,243.544312 572.411743,255.468674 566.085388,265.861908 
	C560.756409,274.616608 556.571716,284.099701 550.900696,292.607178 
	C541.528625,306.666748 530.785095,319.668274 517.170105,329.990967 
	C510.806030,334.816101 504.514160,339.737061 498.120911,344.522858 
	C495.421234,346.543762 492.544403,348.328033 490.678314,349.590607 
	C494.318085,353.719788 498.061249,358.410583 502.270508,362.637207 
	C508.558472,368.951080 514.273621,375.598724 518.298157,383.638275 
	C521.960083,390.953308 526.129639,398.021515 529.605103,405.419464 
	C531.283875,408.992828 531.931824,413.060486 532.961182,416.927032 
	C536.911987,431.767792 537.834656,446.923401 536.867432,462.146942 
	C536.507507,467.812531 534.540161,473.363678 533.500610,479.002899 
	C532.851868,482.521759 532.573975,486.108673 532.118042,489.663483 
	C531.417175,495.127472 530.807800,500.605865 529.965881,506.048157 
	C529.352173,510.015747 528.390991,513.928406 527.648621,517.877563 
	C526.731262,522.757446 525.989624,527.672852 524.970459,532.530579 
	C523.860901,537.818970 522.435974,543.040833 521.313904,548.326843 
	C520.707214,551.185120 520.424622,554.113770 520.032959,557.015686 
	C519.340210,562.148743 518.559875,567.273682 518.034241,572.424316 
	C517.565674,577.015930 512.481201,581.992920 507.879364,581.995239 
	C486.382141,582.005981 464.883972,582.091675 443.388947,581.873840 
	C440.943176,581.848999 436.910614,580.587585 436.422058,579.022827 
	C435.485992,576.024780 436.497040,572.389038 436.857605,569.034790 
	C436.961273,568.070251 437.836853,567.193909 437.963074,566.225647 
	C439.029724,558.044495 439.618134,549.779846 441.117065,541.682190 
	C442.583435,533.760681 445.048950,526.028381 446.854126,518.162231 
	C447.326782,516.102600 446.975739,513.854004 447.021057,511.234253 
z" />
	<path fill="#FFFFFF" opacity="1.000000" stroke="none" d="
M181.000000,464.148804 
	C182.010956,456.512238 182.853836,449.297546 184.083435,442.149323 
	C185.164322,435.865601 186.657867,429.652008 188.008926,423.416016 
	C188.755966,419.967957 188.854599,416.090210 190.602478,413.237640 
	C192.057938,410.862305 195.471390,408.261749 198.054245,408.223267 
	C223.033051,407.851440 248.019684,407.969666 273.003906,408.028107 
	C277.539215,408.038727 281.538971,414.814636 279.981720,419.202240 
	C278.497223,423.384766 276.915833,427.600769 276.112305,431.938293 
	C275.280884,436.426331 275.707031,441.145294 274.898834,445.640198 
	C274.026459,450.492340 272.250092,455.174835 271.079346,459.982758 
	C270.212402,463.543121 269.475922,467.161743 269.055542,470.797668 
	C268.509491,475.520599 268.688263,480.346161 267.899109,485.016693 
	C267.131927,489.557343 265.528290,493.955750 264.314056,498.422668 
	C264.144958,499.044769 264.081940,499.698822 264.004303,500.342255 
	C262.996399,508.694183 262.342712,517.107849 260.891907,525.381836 
	C259.490234,533.375610 257.208038,541.212036 255.438629,549.145691 
	C254.781631,552.091553 254.441849,555.111633 254.029190,558.107727 
	C253.322861,563.235962 252.596573,568.363464 252.023575,573.507446 
	C251.560638,577.663513 247.166855,581.973572 242.880173,581.980469 
	C218.062439,582.020386 193.244568,582.025879 168.426849,581.981445 
	C162.368942,581.970581 159.658752,575.821045 162.548660,568.957275 
	C162.856888,568.225220 163.002197,567.416748 163.162476,566.631348 
	C164.407883,560.528381 165.668365,554.428284 166.862869,548.315308 
	C167.628845,544.395325 168.497772,540.478516 168.946640,536.517944 
	C169.500687,531.628967 169.289612,526.631775 170.114075,521.801575 
	C170.833084,517.589233 172.545410,513.548340 173.779449,509.419922 
	C173.963516,508.804169 173.924225,508.122955 174.000427,507.473480 
	C174.999832,498.953613 175.765396,490.397247 177.083847,481.926971 
	C177.992493,476.089417 179.667496,470.371124 181.000000,464.148804 
z" />
	<path fill="#FFFFFF" opacity="1.000000" stroke="none" d="
M246.000000,155.000000 
	C261.498230,155.000000 276.496429,155.000000 291.494659,155.000000 
	C301.278564,155.000000 301.589874,155.140381 303.934296,164.035110 
	C304.866852,167.573380 305.737274,171.216873 305.910675,174.847107 
	C306.230103,181.533829 304.585510,182.998886 297.999084,182.999100 
	C249.338211,183.000748 200.677322,183.000000 152.016449,183.000000 
	C148.516861,183.000000 144.989090,183.259766 141.530258,182.884293 
	C139.933731,182.710968 137.577011,181.634903 137.104416,180.385727 
	C135.089478,175.059921 133.031464,169.611359 132.174377,164.025757 
	C131.321915,158.470306 135.252670,155.012405 141.012436,155.007034 
	C160.676758,154.988693 180.341095,155.000000 200.005432,155.000000 
	C215.170288,155.000000 230.335144,155.000000 246.000000,155.000000 
z" />
	<path fill="#FFFFFF" opacity="1.000000" stroke="none" d="
M148.001038,221.831085 
	C149.228149,218.785004 144.692688,217.276413 147.331482,213.436554 
	C149.602905,210.131256 151.885727,209.084671 154.922775,209.076950 
	C199.030075,208.964920 243.137772,208.988571 287.245361,209.017456 
	C291.823975,209.020447 292.813995,212.810120 293.946320,216.085709 
	C295.134735,219.523758 295.755890,223.155319 296.891602,226.614792 
	C298.552826,231.675110 295.634186,235.988632 290.254028,235.990631 
	C245.813553,236.007172 201.373062,235.986938 156.932617,236.024124 
	C153.268112,236.027191 150.761246,235.602493 150.784943,230.793976 
	C150.798965,227.952499 148.990738,225.102036 148.001038,221.831085 
z" />
	<path fill="#FFFFFF" opacity="1.000000" stroke="none" d="
M251.000000,262.000000 
	C260.163177,262.000000 268.827393,262.077271 277.489075,261.963409 
	C281.143768,261.915405 282.449402,263.322601 283.177917,267.056030 
	C284.294739,272.779572 286.353821,278.363647 288.459869,283.834869 
	C289.982025,287.789276 289.016418,289.979034 284.788177,289.982300 
	C245.807663,290.012207 206.827103,289.999939 166.799850,289.999939 
	C165.227890,283.499542 163.239029,276.886841 162.133438,270.129639 
	C161.411469,265.717072 165.512726,262.007874 170.032303,262.005859 
	C196.854874,261.993958 223.677429,262.000000 251.000000,262.000000 
z" />
	<path fill="#FFFFFF" opacity="1.000000" stroke="none" d="
M44.581944,86.986221 
	C47.376709,85.517906 50.269451,84.521523 51.956177,82.512558 
	C55.836727,77.890656 59.063568,72.725296 62.721336,67.906212 
	C63.420017,66.985710 64.939392,66.098312 65.968010,66.211784 
	C66.738182,66.296745 67.670906,67.929893 67.939087,69.019463 
	C69.089394,73.692909 69.331337,78.743996 71.325569,82.989929 
	C72.305717,85.076759 76.264725,86.283752 79.087326,86.870148 
	C83.906784,87.871399 88.892929,88.070343 93.809059,88.606293 
	C94.068253,89.137817 94.327438,89.669342 94.586632,90.200867 
	C91.530396,93.102142 88.560867,96.102676 85.390045,98.872787 
	C82.924210,101.027000 80.081734,102.757462 77.677910,104.970840 
	C76.944542,105.646111 77.057053,107.290718 76.875175,108.505318 
	C76.159065,113.287498 78.930550,118.387314 75.179787,123.001213 
	C74.288528,124.097565 75.047661,126.535561 75.047661,129.800491 
	C72.703766,128.694702 70.922638,128.027145 69.319527,127.063454 
	C65.571106,124.810127 62.157570,121.421402 58.127048,120.409103 
	C55.204079,119.674988 51.375977,121.700180 48.194130,123.061935 
	C44.484081,124.649734 41.092064,126.966629 37.444695,128.723526 
	C36.360153,129.245926 34.880421,128.947906 32.705616,129.078354 
	C33.574051,125.662880 34.125454,122.602982 35.142979,119.706856 
	C36.574497,115.632385 38.952053,111.789291 39.714272,107.625595 
	C40.066673,105.700539 37.827778,103.033760 36.276577,101.092545 
	C34.145786,98.426003 31.437969,96.226852 29.215405,93.624176 
	C28.360868,92.623505 28.160133,91.064514 27.350622,88.946571 
	C33.366318,88.248161 38.749241,87.623207 44.581944,86.986221 
z" />
	<path fill="#FFFFFF" opacity="1.000000" stroke="none" d="
M114.005898,339.000000 
	C118.502800,339.682373 121.179108,338.116547 123.151901,334.453308 
	C125.228294,330.597687 127.904984,327.069427 130.216187,323.334259 
	C131.184891,321.768768 131.888046,320.038940 132.844528,318.117462 
	C133.784348,318.117462 135.088226,318.117462 136.128769,318.117462 
	C138.303864,325.019897 140.451981,331.836700 142.560410,338.527588 
	C149.044235,339.492737 155.736801,340.488922 163.785370,341.686981 
	C162.597778,343.615051 161.856979,345.658905 160.436539,346.961761 
	C156.601166,350.479614 152.345642,353.541595 148.539566,357.087891 
	C147.256302,358.283539 146.188126,360.362823 146.112946,362.085907 
	C145.830963,368.548828 146.000000,375.031433 146.000000,383.176941 
	C140.957062,380.497467 136.723114,378.305939 132.549484,376.004974 
	C130.559860,374.908051 128.755646,373.455963 126.717682,372.476288 
	C126.053955,372.157196 124.843109,372.671021 124.006104,373.065918 
	C117.297829,376.230530 110.619179,379.457947 103.931465,382.666138 
	C103.436409,382.305298 102.941360,381.944427 102.446304,381.583588 
	C103.928978,377.060699 104.760429,372.173645 107.040306,368.096497 
	C110.878448,361.232605 110.975342,359.342010 105.581245,354.003815 
	C102.727585,351.179749 100.100533,348.103668 97.605400,344.955688 
	C96.932693,344.106995 97.116005,342.579773 96.977394,341.775879 
	C102.786545,340.803436 108.173218,339.901733 114.005898,339.000000 
z" />
	<path fill="#FFFFFF" opacity="1.000000" stroke="none" d="
M90.226219,203.286514 
	C92.474106,200.039505 94.372536,197.019272 96.466553,194.141342 
	C97.339485,192.941605 98.628822,192.044830 99.728821,191.010315 
	C100.815552,192.513519 102.418640,193.871521 102.889946,195.547760 
	C104.183968,200.150024 104.893921,204.914230 106.098396,209.545837 
	C106.349670,210.512070 107.651405,211.762451 108.608459,211.898071 
	C115.177795,212.828949 121.784233,213.497986 129.553574,214.385544 
	C128.686981,215.844101 128.221741,217.348419 127.209511,218.210495 
	C121.769646,222.843552 116.159943,227.277054 110.713150,231.902267 
	C110.120247,232.405746 110.001389,233.695251 109.993240,234.623077 
	C109.934830,241.274399 109.962013,247.926483 109.962013,255.825485 
	C107.445450,254.442932 105.557625,253.457596 103.720230,252.385803 
	C99.639694,250.005554 95.633240,247.490540 91.469772,245.268051 
	C90.793320,244.906952 89.403633,245.628922 88.451309,246.078430 
	C81.927200,249.157761 75.431824,252.297958 68.927193,255.418549 
	C68.394310,255.129288 67.861427,254.840027 67.328545,254.550781 
	C69.663948,247.004059 71.999352,239.457352 74.410431,231.666092 
	C70.120514,226.461349 65.407059,220.742722 60.536053,214.832947 
	C66.356079,213.814407 71.646889,211.784332 76.698433,212.265625 
	C84.103905,212.971176 87.239655,209.040634 90.226219,203.286514 
z" />
</svg>
